<?xml version="1.0" standalone="no"?>
<!DOCTYPE svg PUBLIC "-//W3C//DTD SVG 20010904//EN"
 "http://www.w3.org/TR/2001/REC-SVG-20010904/DTD/svg10.dtd">
<svg version="1.0" xmlns="http://www.w3.org/2000/svg"
 width="260.000000pt" height="260.000000pt" viewBox="0 0 260.000000 260.000000"
 preserveAspectRatio="xMidYMid meet">
<metadata>
Created by potrace 1.11, written by Peter Selinger 2001-2013
</metadata>
<g transform="translate(0.000000,260.000000) scale(0.100000,-0.100000)"
fill="#000000" stroke="none">
<path d="M205 2493 c3 -54 7 -132 10 -173 2 -41 7 -131 10 -200 3 -69 8 -141
10 -161 13 -100 17 -262 7 -282 -47 -101 -84 -224 -96 -327 -2 -14 -9 -53 -15
-88 -9 -48 -9 -86 0 -165 16 -145 16 -142 28 -180 7 -19 11 -39 9 -43 -1 -5 4
-20 12 -34 7 -14 12 -26 11 -28 -3 -3 13 -48 37 -102 8 -19 15 -37 15 -40 0
-3 11 -22 23 -42 13 -21 24 -40 24 -42 0 -18 107 -160 165 -219 17 -17 29 -36
27 -41 -2 -6 -1 -8 3 -4 6 6 46 -25 111 -90 13 -12 27 -22 32 -22 4 0 17 -8
28 -17 23 -22 142 -83 160 -83 7 0 14 -3 16 -8 3 -7 128 -52 155 -56 7 -1 16
-5 19 -9 4 -4 23 -7 41 -7 19 0 44 -5 56 -11 30 -16 383 -17 399 -1 7 7 28 12
48 12 20 0 40 3 44 8 4 4 11 7 14 7 12 0 96 27 114 36 10 5 25 9 33 9 8 0 15
5 15 10 0 6 7 10 15 10 17 0 52 18 73 37 7 7 17 13 22 13 5 0 20 10 33 22 12
13 29 24 36 26 7 1 27 16 44 32 18 17 36 30 40 30 9 0 177 165 177 174 0 5 44
67 83 116 31 39 134 270 121 270 -4 0 -1 6 5 14 6 7 12 25 13 40 1 14 6 26 10
26 4 0 8 13 8 29 0 16 5 42 10 56 12 33 14 342 2 358 -4 7 -9 28 -11 47 -2 19
-6 40 -9 45 -4 6 -8 19 -9 30 -2 11 -6 27 -10 35 -3 8 -8 24 -10 35 -1 11 -7
29 -12 40 -5 11 -14 36 -21 55 -7 19 -18 49 -25 65 -12 28 -12 93 -1 175 2 19
7 56 11 81 3 26 8 58 10 70 3 13 8 48 11 78 3 30 7 57 9 60 2 3 6 30 10 60 4
30 9 63 12 75 2 12 6 35 8 51 2 17 6 46 10 65 6 34 9 51 19 132 5 36 5 36 -24
28 -16 -5 -57 -22 -90 -39 -33 -17 -60 -28 -60 -25 0 2 -10 -1 -22 -8 -13 -7
-26 -11 -30 -10 -5 1 -8 -3 -8 -10 0 -6 -3 -8 -6 -5 -4 3 -16 1 -28 -5 -11 -7
-24 -11 -28 -10 -5 1 -8 -3 -8 -10 0 -6 -3 -9 -6 -5 -4 3 -13 -1 -21 -9 -8 -8
-18 -12 -23 -9 -5 3 -11 1 -15 -5 -4 -6 -11 -8 -16 -5 -5 4 -9 1 -9 -4 0 -6
-3 -10 -7 -9 -5 1 -18 -3 -30 -10 -13 -7 -23 -10 -23 -7 0 4 -7 -1 -16 -9 -8
-9 -19 -14 -24 -11 -5 3 -11 1 -15 -5 -4 -6 -11 -8 -16 -5 -5 4 -9 1 -9 -4 0
-6 -3 -10 -8 -9 -4 1 -24 -6 -45 -15 -20 -9 -41 -17 -45 -18 -4 0 -16 -6 -27
-12 -11 -6 -22 -12 -25 -13 -3 0 -13 -4 -22 -8 -10 -5 -26 -5 -35 0 -10 4 -22
6 -27 5 -4 -1 -13 3 -20 8 -6 5 -25 13 -41 16 -37 7 -58 13 -65 16 -3 1 -9 3
-15 4 -5 2 -12 4 -15 5 -17 9 -150 20 -245 22 -83 1 -131 -3 -195 -18 -14 -3
-33 -6 -42 -6 -10 1 -20 -3 -23 -8 -3 -5 -12 -7 -20 -3 -8 3 -15 0 -15 -7 0
-6 -4 -9 -8 -6 -5 3 -21 -2 -37 -10 -45 -23 -90 -27 -108 -9 -9 8 -21 15 -27
15 -10 0 -93 36 -179 78 -19 9 -39 16 -43 15 -4 -2 -8 2 -8 8 0 5 -5 7 -10 4
-5 -3 -10 -1 -10 4 0 6 -7 11 -16 11 -8 0 -35 12 -59 26 -24 14 -48 26 -52 26
-24 3 -43 11 -43 19 0 5 -3 8 -7 7 -15 -4 -53 13 -53 23 0 6 -4 7 -10 4 -5 -3
-10 -1 -10 4 0 6 -3 10 -7 9 -5 -1 -27 8 -50 20 -23 12 -45 22 -47 22 -3 0 -3
-44 -1 -97z m585 -418 c7 -8 47 -38 89 -67 42 -28 78 -55 79 -60 2 -4 8 -8 14
-8 5 0 15 -6 22 -12 7 -7 30 -26 52 -43 53 -42 88 -75 79 -75 -4 0 -3 -6 3
-12 12 -16 35 -97 57 -198 9 -41 18 -82 20 -90 16 -57 23 -95 19 -102 -3 -4 0
-8 5 -8 6 0 11 -7 11 -16 0 -8 -4 -12 -10 -9 -5 3 -10 1 -10 -4 0 -6 -5 -11
-11 -11 -14 0 -196 -125 -276 -190 -7 -6 -18 -10 -24 -10 -7 0 -9 -3 -6 -6 3
-4 -13 -20 -36 -37 -23 -17 -57 -45 -76 -64 -19 -18 -37 -33 -40 -33 -3 0 -52
45 -109 100 -56 55 -107 100 -112 100 -5 0 -39 18 -74 39 -35 22 -66 37 -69
34 -9 -8 -29 38 -23 53 3 8 5 16 6 19 0 3 7 19 15 35 8 16 15 32 14 35 -2 10
42 190 52 210 6 11 32 34 59 50 27 17 50 33 50 38 0 4 6 7 13 7 7 0 19 9 27
20 23 32 64 35 117 7 46 -24 77 -37 98 -42 6 -2 36 -10 68 -20 l57 -16 0 -115
c0 -112 -2 -120 -32 -115 -5 0 -8 -3 -8 -8 0 -5 -12 -12 -27 -16 -16 -3 -35
-13 -43 -20 -8 -7 -27 -17 -42 -20 -35 -9 -36 7 -3 46 22 27 24 36 19 102 -8
120 -6 117 -62 103 -26 -7 -55 -12 -65 -10 -9 1 -19 -2 -23 -7 -3 -5 -13 -9
-23 -9 -19 0 -23 -8 -82 -183 l-34 -99 41 -36 c22 -21 58 -50 79 -67 21 -16
43 -35 49 -41 6 -6 19 -10 29 -8 14 2 111 66 127 84 3 3 37 30 75 60 97 76 96
74 102 127 2 27 8 67 12 90 5 23 9 79 10 125 2 94 10 82 -109 173 -36 27 -67
52 -70 56 -3 3 -15 9 -27 13 -13 4 -23 11 -23 16 0 7 -44 23 -65 23 -28 0
-137 -36 -222 -74 -28 -12 -43 -26 -43 -37 0 -17 -28 -50 -57 -66 -9 -5 -9 1
-3 21 14 47 22 63 32 63 5 0 7 4 4 8 -7 12 36 51 104 96 30 20 64 43 75 52 11
8 36 23 55 32 19 9 41 22 48 29 18 17 37 16 52 -2z m1113 -22 c18 -10 34 -20
37 -23 3 -3 32 -23 64 -45 33 -22 65 -45 71 -52 7 -7 15 -9 19 -6 3 3 8 -2 12
-11 3 -9 11 -16 18 -16 6 -1 24 -11 39 -24 21 -17 33 -41 46 -93 10 -39 22
-76 25 -82 4 -6 9 -20 11 -32 2 -11 7 -30 11 -41 4 -14 2 -19 -7 -16 -14 5
-51 64 -54 88 -1 8 -7 28 -14 43 -6 16 -11 32 -11 36 0 12 -29 35 -48 37 -8 2
-19 9 -23 16 -5 7 -9 9 -9 3 0 -5 -6 -3 -13 5 -13 16 -98 74 -109 75 -4 0 -13
6 -19 13 -17 16 -39 15 -83 -3 -20 -8 -36 -12 -36 -8 0 5 -4 4 -8 -2 -6 -9
-62 -33 -88 -39 -7 -1 -18 -7 -25 -13 -8 -6 -18 -12 -24 -13 -5 0 -36 -13 -67
-28 -66 -31 -60 -2 -58 -262 2 -189 1 -180 12 -174 4 3 8 1 8 -4 0 -4 8 -17
18 -28 9 -10 42 -48 72 -84 30 -35 67 -77 81 -93 l26 -29 44 28 c24 16 46 31
49 34 16 16 73 50 128 76 l63 29 -4 40 c-2 22 -7 47 -10 55 -3 8 -17 62 -32
120 -15 58 -27 105 -28 106 -32 14 -75 26 -125 32 -78 11 -81 7 -76 -103 l3
-79 45 -44 c25 -24 46 -48 46 -54 0 -9 -27 -7 -65 6 -13 4 -75 16 -100 20 -19
3 -25 19 -38 106 -3 19 -8 46 -11 60 -19 80 -20 78 36 109 29 17 57 30 62 30
5 -1 12 3 15 9 3 5 41 25 84 45 75 35 80 36 109 21 16 -8 43 -27 59 -41 29
-27 57 -44 96 -62 20 -9 31 -39 38 -100 0 -9 4 -32 8 -51 4 -19 9 -51 11 -71
3 -20 8 -42 10 -50 3 -8 8 -38 11 -68 3 -30 7 -57 10 -59 2 -3 0 -13 -6 -24
-6 -11 -13 -17 -16 -15 -3 3 -22 -1 -44 -8 -21 -8 -39 -11 -39 -7 0 4 -4 1 -9
-6 -4 -7 -14 -15 -22 -16 -41 -8 -223 -114 -241 -141 -5 -6 -8 -6 -8 0 0 6 -3
5 -8 -1 -4 -6 -26 -23 -49 -37 l-41 -26 -24 37 c-28 41 -91 114 -125 145 -13
12 -23 27 -23 34 0 8 -4 12 -9 8 -5 -3 -11 1 -13 9 -2 8 -40 53 -85 100 -53
55 -83 95 -83 109 0 36 30 155 62 247 24 68 38 93 74 128 25 23 48 42 52 42 4
0 18 10 32 23 14 13 32 26 40 30 15 7 42 25 91 59 30 20 143 88 147 88 2 0 18
-8 35 -17z m460 -843 c2 -146 -16 -260 -39 -260 -8 0 -14 9 -14 20 0 11 -7 20
-15 20 -12 0 -11 -6 5 -32 11 -18 20 -44 20 -57 0 -75 -138 -345 -204 -400
-12 -11 -17 -5 -26 31 -7 23 -14 50 -15 59 -4 21 -29 94 -46 134 -7 17 -13 32
-14 35 -1 3 -9 22 -18 42 -18 41 -21 58 -9 58 4 0 25 16 47 36 22 20 54 48 70
63 17 15 48 49 69 76 53 71 60 72 80 21 9 -24 24 -47 33 -51 15 -5 15 -4 2 12
-16 20 -49 88 -49 103 0 5 13 37 29 72 16 35 37 88 46 118 27 89 26 88 37 60
5 -14 10 -86 11 -160z m-2080 114 c1 -11 20 -50 41 -89 22 -38 39 -74 39 -81
0 -21 -78 -174 -89 -174 -18 0 -22 40 -23 207 0 158 5 199 20 170 5 -8 10 -23
12 -33z m124 -231 c29 -45 127 -153 138 -153 3 0 18 -12 32 -26 l27 -27 -22
-41 c-25 -47 -102 -266 -102 -289 0 -24 -31 -30 -37 -7 -3 11 -9 20 -15 20
-12 0 -103 192 -122 259 -9 30 -16 67 -16 81 0 27 44 145 62 168 6 6 7 12 3
12 -4 0 -2 7 5 15 18 21 27 19 47 -12z m263 -242 c5 -5 33 -21 100 -56 43 -22
73 -35 125 -53 28 -9 51 -20 53 -25 4 -10 -7 -69 -28 -152 -14 -57 -31 -134
-31 -147 0 -2 -4 -21 -9 -43 -5 -22 -12 -65 -16 -95 -3 -30 -8 -57 -10 -59 -6
-7 -104 42 -104 52 0 4 -5 7 -10 7 -16 0 -117 78 -187 144 -44 42 -63 67 -63
84 0 20 32 123 57 182 3 8 5 18 5 23 -1 4 7 25 18 47 11 21 22 47 24 57 8 43
18 53 45 46 14 -3 28 -9 31 -12z m1335 -122 c20 -56 38 -106 40 -113 1 -6 7
-24 14 -40 6 -16 14 -48 18 -71 4 -35 2 -45 -19 -66 -51 -49 -104 -95 -138
-119 -19 -13 -37 -27 -40 -30 -3 -3 -18 -12 -35 -20 -16 -8 -32 -18 -35 -22
-4 -4 -20 -11 -38 -14 -31 -6 -32 -5 -33 27 -1 39 -4 61 -19 184 -6 50 -13 98
-16 108 -3 10 -7 35 -9 55 -2 20 -6 53 -10 73 -7 36 -6 37 30 49 20 7 42 13
48 14 7 1 22 8 35 14 12 7 22 9 22 5 0 -4 4 -2 8 4 4 7 17 14 27 16 11 1 27 7
35 12 33 22 56 33 66 34 7 1 29 -45 49 -100z m-850 -40 c61 -6 115 -13 122
-14 8 -3 11 -67 8 -242 -4 -341 -2 -320 -22 -321 -80 -3 -324 51 -361 81 -14
11 -15 88 -1 142 4 17 10 50 13 75 11 85 39 218 62 289 3 9 14 11 37 7 17 -3
82 -11 142 -17z m504 -2 c5 -12 12 -56 16 -97 4 -41 9 -83 11 -94 2 -10 6 -44
9 -75 3 -31 9 -76 12 -101 15 -124 17 -117 -41 -138 -71 -27 -184 -54 -195
-47 -5 3 -11 1 -13 -4 -4 -11 -118 -19 -134 -9 -8 5 -12 380 -5 524 1 20 9 22
84 29 112 9 135 12 187 23 25 5 48 10 53 11 4 1 11 -9 16 -22z"/>
</g>
</svg>
